<svg width="24" height="24" viewBox="0 0 24 24" fill="none" xmlns="http://www.w3.org/2000/svg">
<path fill-rule="evenodd" clip-rule="evenodd" d="M15.4915 0C15.6964 1.1 15.1841 2.2 14.5693 3C13.9545 3.8 12.8274 4.5 11.7003 4.4C11.4953 3.3 12.0077 2.3 12.6225 1.5C13.3397 0.7 14.4669 0.1 15.4915 0ZM18.7704 17.4C19.2827 16.6 19.5901 16.1 20 15.2C16.8236 14 16.3112 9.6 19.4877 8C18.5655 6.8 17.2334 6.2 15.9014 6.2C14.9792 6.2 14.3644 6.4 13.7496 6.6C13.2373 6.8 12.8274 6.9 12.3151 6.9C11.7003 6.9 11.2904 6.7 10.6756 6.5C10.0608 6.3 9.44604 6.1 8.72878 6.1C7.29426 6.1 5.75727 6.9 4.83508 8.4C3.50303 10.4 3.70796 14.3 5.85974 17.5C6.78193 18.7 7.80658 20 9.13864 20C9.75343 20 10.0608 19.8 10.4707 19.7C10.983 19.5 11.4953 19.3 12.3151 19.3C13.2373 19.3 13.6471 19.5 14.1595 19.7C14.5693 19.9 14.8767 20 15.4915 20C16.926 20 17.9507 18.5 18.7704 17.4Z" fill="white"/>
</svg>
