<svg width="512" height="512" viewBox="0 0 512 512" fill="none" xmlns="http://www.w3.org/2000/svg">
<circle cx="256" cy="256" r="205" fill="#D9DDE5"/>
<mask id="mask0_965_1783" style="mask-type:alpha" maskUnits="userSpaceOnUse" x="50" y="50" width="412" height="412">
<circle cx="256" cy="256" r="206" fill="#3838A0"/>
</mask>
<g mask="url(#mask0_965_1783)">
<g style="mix-blend-mode:multiply">
<path d="M296.093 419.727C354.032 419.727 401 372.839 401 315C401 257.161 354.032 210.274 296.093 210.274C238.155 210.274 191.186 257.161 191.186 315C191.186 372.839 238.155 419.727 296.093 419.727Z" fill="#9488EC"/>
</g>
<path d="M229.809 538C201.103 538 173.963 524.974 155.695 502.57C154.651 502.049 154.129 501.007 153.607 499.965C135.34 474.956 111.853 454.115 84.7134 438.484C58.0952 422.853 29.3893 413.474 -0.882355 409.827C-1.92621 409.827 -2.97005 409.306 -4.01391 409.306C-51.5091 403.054 -87 362.935 -87 315C-87 268.629 -52.5529 228.509 -6.62354 221.215C-5.57968 220.694 -4.53583 220.694 -2.97005 220.173C27.8235 217.047 57.5733 207.147 84.7134 191.516C111.332 176.407 134.296 156.086 152.042 131.598C152.564 131.077 153.086 130.556 153.607 130.035C171.875 106.068 200.059 92 229.809 92C282.523 92 325.321 134.724 325.321 187.348C325.321 200.374 322.711 212.879 317.492 224.862C312.273 236.325 305.488 244.661 299.225 252.998C286.698 268.629 276.26 282.175 276.26 314.479C276.26 346.262 286.698 359.287 298.703 374.918C305.488 383.255 312.273 391.591 316.97 403.054C316.97 403.575 317.492 404.096 317.492 404.617C322.711 416.6 325.321 429.626 325.321 442.131C325.843 495.276 282.523 538 229.809 538ZM176.05 480.166C176.572 480.687 177.094 481.208 177.616 482.25C190.142 498.923 209.453 508.301 229.809 508.301C265.821 508.301 295.571 479.124 295.571 442.652C295.571 433.273 293.483 424.416 289.83 415.558C289.83 415.037 289.308 414.516 289.308 413.995C286.176 406.701 280.957 400.97 275.738 393.675C262.69 377.523 246.51 357.203 246.51 314.479C246.51 271.755 262.69 250.914 276.26 234.241C282.001 226.946 287.22 220.173 290.874 212.879C294.527 204.542 296.093 196.206 296.093 187.348C296.093 151.397 266.865 121.699 230.33 121.699C208.932 121.699 189.62 131.598 177.094 149.313C176.572 149.834 176.05 150.355 175.528 151.397C155.173 178.491 129.599 200.895 100.371 217.568C70.0995 234.762 37.7401 245.703 3.81497 249.871C2.77112 250.393 1.72726 250.393 1.20535 250.393C-31.6759 254.561 -56.2064 282.175 -56.2064 315C-56.2064 348.346 -30.6321 376.481 2.77113 379.607C3.81497 379.607 4.85882 380.129 6.42459 380.129C39.8278 384.297 71.1433 395.238 100.371 411.911C130.121 429.626 155.695 452.551 176.05 480.166Z" fill="#D93497"/>
<path d="M-3.49196 405.138C-13.4085 405.138 -23.847 403.054 -35.8513 399.407L-25.9347 371.272C23.1262 388.466 44.0032 351.994 78.9722 266.024C96.7177 222.258 117.073 173.802 147.866 137.33L170.831 156.608C143.169 189.433 124.902 233.72 107.156 276.445C81.0599 340.01 54.4417 405.138 -3.49196 405.138Z" fill="#D93497"/>
</g>
</svg>
