<svg width="24" height="24" viewBox="0 0 24 24" fill="none" xmlns="http://www.w3.org/2000/svg">
<path d="M20.8163 10.38H12.1837V13.71H17.2347C17.1429 14.52 16.5918 15.78 15.398 16.59C14.6633 17.13 13.5612 17.49 12.1837 17.49C9.79592 17.49 7.68367 15.96 6.94898 13.71C6.76531 13.17 6.67347 12.54 6.67347 11.91C6.67347 11.28 6.76531 10.65 6.94898 10.11C7.04082 9.93 7.04082 9.75 7.13265 9.66C7.95918 7.77 9.88776 6.42 12.1837 6.42C13.9286 6.42 15.0306 7.14 15.7653 7.77L18.3367 5.25C16.7755 3.9 14.6633 3 12.1837 3C8.60204 3 5.47959 4.98 4.0102 7.95C3.36735 9.21 3 10.56 3 12C3 13.44 3.36735 14.79 4.0102 16.05C5.47959 19.02 8.60204 21 12.1837 21C14.6633 21 16.7755 20.19 18.2449 18.84C19.9898 17.31 21 14.97 21 12.18C21 11.46 20.9082 10.92 20.8163 10.38Z" fill="white"/>
</svg>
