<svg width="24" height="24" viewBox="0 0 24 24" fill="none" xmlns="http://www.w3.org/2000/svg">
<path d="M5.99593 6.00153L3.30879 6.0029C3.30879 6.0029 3.15502 5.99372 2.96932 6.01945C2.78361 6.04517 2.50927 6.05711 2.22795 6.39439L2.22665 6.39576L2.22535 6.39714C1.97511 6.70043 1.98466 7.05341 2.01594 7.24765C2.04711 7.44117 2.11739 7.58675 2.11739 7.58675V7.58813C2.14323 7.6553 4.09431 12.7218 6.55391 15.4439C8.28884 17.3653 10.1443 17.9996 11.7968 17.9996H12.654C12.936 17.9996 13.1878 17.986 13.4669 17.8328C13.7459 17.6796 13.9858 17.2568 13.9858 16.9285C13.9858 16.5748 13.994 16.2319 14.0366 16.0408C14.0763 15.8623 14.061 15.9061 14.0769 15.9057C14.0928 15.9094 14.1219 15.9165 14.177 15.9429C14.2958 15.9999 14.4794 16.1269 14.683 16.2945C15.0895 16.629 15.5711 17.1143 16.1111 17.4896C16.8845 18.0329 17.7239 17.9996 17.7239 17.9996H20.4917L20.5216 17.9968C20.5216 17.9968 20.9463 17.9866 21.3826 17.7032C21.6008 17.5615 21.8601 17.3016 21.9471 16.912C22.0342 16.5224 21.923 16.1136 21.7091 15.7541C21.631 15.6222 21.2516 15.0395 19.7373 13.6147C19.3461 13.247 19.0793 12.9867 18.9738 12.8483C18.9364 12.7992 18.9332 12.8039 18.9257 12.8014C18.9345 12.7773 19.022 12.5821 19.2561 12.2597C19.5 11.9238 19.8707 11.4557 20.3473 10.8123C20.9548 9.9921 21.381 9.20339 21.6493 8.53788C21.7834 8.20513 21.8784 7.90319 21.9354 7.62948C21.9924 7.35577 22.0378 7.12827 21.9536 6.80379C21.8908 6.56225 21.7202 6.34592 21.553 6.23173C21.3858 6.11754 21.2299 6.07452 21.09 6.04701C20.8101 5.99199 20.5632 6.00153 20.333 6.00153C19.851 6.00153 17.7083 6.01945 17.5314 6.01945C17.3238 6.01945 16.9927 6.11106 16.8395 6.20416C16.459 6.43506 16.34 6.75141 16.34 6.75141L16.3036 6.81895L16.2828 6.89477C16.2828 6.89477 15.7949 8.56758 15.293 9.42975H15.2917C14.7015 10.4454 14.2613 10.8483 14.0678 10.9626C14.0472 10.9747 14.0586 10.9683 14.0444 10.9764C14.0292 10.9296 14.0101 10.8653 13.9975 10.7462C13.9692 10.4778 13.9858 10.0999 13.9858 9.73438C13.9858 8.72202 14.0576 8.09073 13.978 7.49302C13.9383 7.19416 13.837 6.86134 13.606 6.60529C13.3751 6.34924 13.0767 6.22321 12.7788 6.1504H12.7775C12.467 6.07462 12.1325 6.00954 11.3286 6.00153C10.3044 5.99141 9.63737 6.02506 9.04466 6.30479L9.03816 6.30892L9.03295 6.31168C8.79876 6.42826 8.61415 6.5619 8.45156 6.74038C8.37027 6.82962 8.27383 6.8946 8.20704 7.17873C8.17364 7.32079 8.16998 7.58957 8.3215 7.8073C8.47301 8.02503 8.68535 8.0907 8.81054 8.10781C8.78745 8.10463 8.90904 8.13299 9.00304 8.18224C9.09704 8.2315 9.17866 8.30242 9.19944 8.33112V8.33249C9.19075 8.32053 9.28102 8.55828 9.30479 8.77498C9.32856 8.99168 9.3243 9.16646 9.3243 9.16646L9.323 9.20919L9.3269 9.25192C9.3269 9.25192 9.36778 9.73147 9.34641 10.2265C9.33572 10.474 9.3062 10.7231 9.26707 10.8757C9.265 10.8838 9.26406 10.881 9.26187 10.8882C9.09514 10.7647 8.71068 10.3347 8.18103 9.40769C7.69141 8.55014 7.23285 7.0078 7.23285 7.0078L7.22245 6.97334L7.21074 6.94025C7.21074 6.94025 7.12525 6.59571 6.74771 6.31444C6.39385 6.05042 6.05706 6.01393 6.05706 6.01393L5.99593 6.00153ZM5.84116 7.41306C5.87925 7.42782 5.95888 7.45823 5.97382 7.46545L5.95821 7.41582L5.97902 7.46682L5.98163 7.4682V7.46958H5.98293C5.94946 7.44477 5.97783 7.4694 5.98163 7.4751C6.00002 7.5416 6.40664 9.02605 7.04166 10.1383C7.62014 11.1508 8.04752 11.718 8.51399 12.0571C8.98002 12.3958 9.60667 12.3609 9.9252 12.1853C10.3509 11.951 10.4699 11.5659 10.5521 11.2452C10.6344 10.9244 10.6637 10.599 10.677 10.2913C10.7023 9.70409 10.659 9.22374 10.6549 9.17611C10.6555 9.14958 10.6615 8.92017 10.6276 8.61094C10.5934 8.29936 10.5321 7.91215 10.2712 7.52334C10.5634 7.47732 10.7257 7.40724 11.3156 7.41306C12.0679 7.42057 12.1823 7.45383 12.4784 7.5261C12.6396 7.56551 12.6575 7.59816 12.6423 7.58124C12.627 7.56431 12.6409 7.55301 12.6592 7.69013C12.6957 7.96433 12.654 8.66756 12.654 9.73438C12.654 10.0351 12.6266 10.4592 12.6735 10.9033C12.7204 11.3472 12.8512 11.9151 13.3576 12.2473C13.6461 12.4366 14.1973 12.5016 14.7168 12.1949C15.2363 11.8882 15.7694 11.2998 16.4259 10.17C17.0743 9.05596 17.4621 7.59131 17.5041 7.4365C17.5041 7.4365 17.5115 7.4314 17.5158 7.42823C17.5276 7.42883 17.5126 7.43098 17.5314 7.43098C17.7781 7.43098 19.8827 7.41306 20.333 7.41306C20.4569 7.41306 20.5113 7.42013 20.6035 7.42409C20.5663 7.57647 20.5161 7.75391 20.4241 7.98237C20.2076 8.51931 19.8362 9.21576 19.299 9.94115C18.836 10.5661 18.4763 11.0194 18.2012 11.3982C17.9262 11.777 17.7101 12.0758 17.6199 12.5078C17.5296 12.9399 17.7018 13.4272 17.9372 13.736C18.1726 14.0449 18.4639 14.3051 18.8529 14.6706C20.318 16.0492 20.5584 16.4664 20.5814 16.5054V16.5067C20.6062 16.5483 20.5901 16.5065 20.5996 16.5274C20.5166 16.5549 20.4177 16.5859 20.4084 16.5881H17.7135H17.7096C17.7096 16.5881 17.2139 16.5708 16.846 16.3124L16.8447 16.311H16.8434C16.4541 16.0408 15.9836 15.5774 15.4998 15.1793C15.2579 14.9802 15.0116 14.7937 14.7259 14.6568C14.4402 14.52 14.0782 14.4229 13.6971 14.5438C13.1455 14.7188 12.8394 15.2751 12.7411 15.7169C12.6705 16.034 12.681 16.3098 12.6787 16.5867C12.6597 16.5877 12.6761 16.5881 12.654 16.5881H11.7968C10.4433 16.5881 9.03521 16.1502 7.51639 14.468C5.54179 12.2826 3.78005 8.05645 3.51559 7.41444L5.84116 7.41306ZM17.4573 7.41858C17.4452 7.42143 17.4798 7.4242 17.508 7.42685C17.5042 7.42904 17.5083 7.42491 17.5028 7.42823C17.5022 7.41643 17.4735 7.41474 17.4573 7.41858Z" fill="#08050D"/>
</svg>
