<svg width="24" height="24" viewBox="0 0 24 24" fill="none" xmlns="http://www.w3.org/2000/svg">
<path d="M12.8774 2.00002C12.82 2.00059 12.7633 2.01246 12.7105 2.03498C12.6577 2.05749 12.6098 2.0902 12.5696 2.13122C12.5295 2.17225 12.4978 2.2208 12.4764 2.27408C12.4551 2.32736 12.4444 2.38433 12.4451 2.44174C12.4831 5.65298 12.6707 7.91426 13.9851 9.42815C15.2995 10.942 17.6025 11.5142 21.5582 11.5574C21.6192 11.5581 21.6798 11.546 21.7359 11.5219C21.792 11.4977 21.8424 11.4621 21.8839 11.4173C21.9253 11.3724 21.9569 11.3194 21.9766 11.2615C21.9963 11.2037 22.0036 11.1424 21.9982 11.0816C21.5614 6.27183 17.7306 2.43981 12.9209 2.00173C12.9064 2.00044 12.8919 1.99987 12.8774 2.00002ZM11.0833 2.00258C11.0722 2.00273 11.0611 2.0033 11.05 2.00429C6.25388 2.45515 2.43711 6.28138 2.00176 11.0816C1.99628 11.1424 2.00362 11.2037 2.02331 11.2615C2.04299 11.3194 2.07459 11.3724 2.11606 11.4173C2.15753 11.4621 2.20794 11.4977 2.26405 11.5219C2.32015 11.546 2.3807 11.5581 2.44177 11.5574C6.38577 11.512 8.68275 10.9387 9.99265 9.42474C11.3025 7.91079 11.4885 5.65152 11.5267 2.4443C11.5274 2.38596 11.5164 2.32807 11.4943 2.27406C11.4722 2.22004 11.4396 2.171 11.3982 2.12982C11.3569 2.08865 11.3077 2.05617 11.2536 2.03432C11.1995 2.01246 11.1416 2.00167 11.0833 2.00258ZM13.3566 2.96531C17.3313 3.55949 20.4493 6.68052 21.0371 10.6569C17.5445 10.5643 15.6402 10.0031 14.6443 8.85597C13.665 7.72811 13.4196 5.78543 13.3566 2.96531ZM10.616 2.96873C10.5529 5.7847 10.3074 7.72582 9.33179 8.85341C8.33955 10.0002 6.44282 10.5612 2.96279 10.6561C3.54956 6.6892 6.65461 3.57295 10.616 2.96873ZM2.44177 12.4426C2.3807 12.4418 2.32015 12.4539 2.26405 12.4781C2.20794 12.5022 2.15753 12.5379 2.11606 12.5827C2.07459 12.6276 2.04299 12.6806 2.02331 12.7384C2.00362 12.7962 1.99628 12.8575 2.00176 12.9184C2.43756 17.719 6.25385 21.5453 11.05 21.9957C11.1109 22.0013 11.1723 21.994 11.2302 21.9744C11.2882 21.9548 11.3413 21.9232 11.3863 21.8817C11.4312 21.8402 11.4669 21.7898 11.4911 21.7336C11.5153 21.6774 11.5274 21.6168 11.5267 21.5557C11.4885 18.3484 11.3025 16.0892 9.99265 14.5752C8.68275 13.0612 6.38578 12.4878 2.44177 12.4426ZM21.5582 12.4426C17.6025 12.4858 15.2994 13.0579 13.9851 14.5718C12.6708 16.0857 12.4833 18.347 12.4451 21.5582C12.4444 21.6193 12.4565 21.6798 12.4806 21.736C12.5048 21.7921 12.5404 21.8425 12.5852 21.8839C12.6301 21.9254 12.6831 21.957 12.7409 21.9767C12.7988 21.9964 12.8601 22.0037 12.9209 21.9982C17.7302 21.5602 21.561 17.729 21.9982 12.9192C22.0038 12.8583 21.9965 12.7969 21.9769 12.739C21.9573 12.6811 21.9257 12.6279 21.8842 12.583C21.8427 12.5381 21.7923 12.5023 21.7361 12.4781C21.6799 12.4539 21.6193 12.4418 21.5582 12.4426ZM21.0371 13.343C20.4489 17.3195 17.3309 20.4405 13.3566 21.0347C13.4198 18.2145 13.6651 16.2719 14.6443 15.144C15.6402 13.9968 17.5445 13.4357 21.0371 13.343ZM2.96279 13.3439C6.44281 13.4385 8.33955 13.9997 9.33179 15.1466C10.3074 16.2742 10.5529 18.2153 10.616 21.0312C6.65465 20.4274 3.54987 17.3112 2.96279 13.3439Z" fill="#08050D" stroke="#08050D" stroke-width="0.5"/>
</svg>
