<svg width="24" height="24" viewBox="0 0 24 24" fill="none" xmlns="http://www.w3.org/2000/svg">
<path d="M21.702 2.00147C21.4583 2.01216 21.2211 2.07996 21.0072 2.16558C20.7955 2.25064 19.5765 2.7707 17.7765 3.54001C15.9764 4.30931 13.6365 5.31111 11.317 6.30449C6.67794 8.29125 2.11929 10.2461 2.11929 10.2461L2.15251 10.2334C2.15251 10.2334 1.87738 10.3253 1.59842 10.5196C1.45895 10.6167 1.3089 10.7421 1.18603 10.925C1.06317 11.1078 0.973351 11.3669 1.0072 11.641C1.12609 12.6037 2.12417 12.8767 2.12417 12.8767L2.12808 12.8787L6.5823 14.4026C6.69587 14.7813 7.93328 18.9097 8.20548 19.784C8.35581 20.2674 8.49651 20.5462 8.64328 20.7364C8.71672 20.8316 8.79369 20.9053 8.87879 20.9592C8.91261 20.9806 8.94817 20.9966 8.98336 21.0109H8.98531C8.98963 21.0128 8.9937 21.013 8.99801 21.0148L8.98629 21.0119C8.99446 21.0152 9.00253 21.0208 9.01072 21.0236C9.0266 21.0292 9.03633 21.029 9.05665 21.0334C9.56677 21.2115 9.98893 20.881 9.98893 20.881L10.0065 20.8673L12.7428 18.3305L17.1833 21.7914L17.239 21.8168C18.0163 22.1618 18.7192 21.9694 19.1084 21.6527C19.4977 21.3361 19.6508 20.9279 19.6508 20.9279L19.6674 20.8849L22.9304 3.88484C23.0139 3.50451 23.0257 3.17575 22.947 2.87868C22.8683 2.58161 22.6769 2.32337 22.4369 2.18023C22.1968 2.0371 21.9457 1.99078 21.702 2.00147ZM21.7284 3.01837C21.8274 3.01379 21.9007 3.0251 21.9238 3.03888C21.947 3.05267 21.9573 3.05086 21.9795 3.13462C22.0017 3.21838 22.0138 3.3948 21.9532 3.67091L21.9512 3.67677L18.7068 20.5782C18.6991 20.5952 18.6315 20.7516 18.4771 20.8771C18.3197 21.0052 18.1445 21.1052 17.6797 20.9103L12.8239 17.125L12.6871 17.0176L12.6841 17.0205L11.232 15.9313L19.3928 6.33379C19.4555 6.26024 19.4956 6.1701 19.5081 6.07427C19.5207 5.97845 19.5052 5.88104 19.4635 5.79383C19.4219 5.70662 19.3558 5.63334 19.2734 5.58286C19.1909 5.53237 19.0956 5.50683 18.999 5.50933C18.9046 5.51179 18.8127 5.54091 18.7342 5.59334L6.92531 13.4628L2.46425 11.936C2.46425 11.936 2.02127 11.6896 2.00007 11.5179C1.99889 11.5084 1.99366 11.517 2.01668 11.4828C2.0397 11.4485 2.09756 11.3907 2.1701 11.3401C2.31519 11.2391 2.48086 11.178 2.48086 11.178L2.49748 11.1721L2.51409 11.1653C2.51409 11.1653 7.07298 9.21036 11.7118 7.2237C14.0312 6.23038 16.3707 5.22931 18.1703 4.4602C19.9694 3.69128 21.2694 3.13782 21.3795 3.09359C21.5048 3.04342 21.6294 3.02295 21.7284 3.01837ZM16.3165 8.40667L10.1277 15.6852L10.1248 15.6881C10.1151 15.6997 10.106 15.7118 10.0974 15.7242C10.0876 15.7378 10.0784 15.7518 10.07 15.7662C10.0353 15.8252 10.013 15.8907 10.0046 15.9587C10.0046 15.96 10.0046 15.9613 10.0046 15.9626L9.19835 19.5867C9.18494 19.5475 9.17556 19.5332 9.16121 19.4871V19.4861C8.90514 18.6636 7.73767 14.7701 7.57614 14.2316L16.3165 8.40667ZM10.8264 16.8779L11.9385 17.7121L10.3046 19.2262L10.8264 16.8779Z" fill="#08050D" stroke="#08050D" stroke-width="0.5"/>
</svg>
