<svg width="40" height="36" viewBox="0 0 40 36" fill="none" xmlns="http://www.w3.org/2000/svg">
<g style="mix-blend-mode:multiply">
<path d="M30.8989 26.4533C35.572 26.4533 39.3603 22.6686 39.3603 18C39.3603 13.3314 35.572 9.54675 30.8989 9.54675C26.2258 9.54675 22.4375 13.3314 22.4375 18C22.4375 22.6686 26.2258 26.4533 30.8989 26.4533Z" fill="#9488EC"/>
</g>
<path d="M25.5525 36C23.2372 36 21.0482 34.9486 19.5749 33.1402C19.4907 33.0981 19.4486 33.014 19.4065 32.9299C17.9331 30.9112 16.0387 29.229 13.8497 27.9673C11.7028 26.7056 9.38751 25.9486 6.94592 25.6542C6.86172 25.6542 6.77753 25.6122 6.69334 25.6122C2.86256 25.1075 0 21.8692 0 18C0 14.257 2.77837 11.0187 6.48285 10.4299C6.56705 10.3878 6.65124 10.3879 6.77753 10.3458C9.26122 10.0935 11.6607 9.29439 13.8497 8.03271C15.9967 6.81308 17.8489 5.1729 19.2802 3.19626C19.3223 3.15421 19.3644 3.11215 19.4065 3.07009C20.8798 1.13551 23.1531 0 25.5525 0C29.8043 0 33.2562 3.4486 33.2562 7.69626C33.2562 8.74766 33.0457 9.75701 32.6248 10.7243C32.2038 11.6495 31.6565 12.3224 31.1514 12.9953C30.1411 14.257 29.2991 15.3505 29.2991 17.9579C29.2991 20.5234 30.1411 21.5748 31.1093 22.8364C31.6565 23.5093 32.2038 24.1822 32.5827 25.1075C32.5827 25.1495 32.6248 25.1916 32.6248 25.2336C33.0457 26.2009 33.2562 27.2523 33.2562 28.2617C33.2983 32.5514 29.8043 36 25.5525 36ZM21.2166 31.3318C21.2587 31.3738 21.3008 31.4159 21.3429 31.5C22.3532 32.8458 23.9108 33.6028 25.5525 33.6028C28.4572 33.6028 30.8567 31.2477 30.8567 28.3037C30.8567 27.5467 30.6883 26.8318 30.3936 26.1168C30.3936 26.0748 30.3515 26.0327 30.3515 25.9907C30.099 25.4019 29.678 24.9393 29.257 24.3505C28.2046 23.0467 26.8996 21.4065 26.8996 17.9579C26.8996 14.5093 28.2046 12.8271 29.2991 11.4813C29.7622 10.8925 30.1832 10.3458 30.4778 9.75701C30.7725 9.08411 30.8988 8.41121 30.8988 7.69626C30.8988 4.79439 28.5414 2.3972 25.5946 2.3972C23.8687 2.3972 22.3111 3.19626 21.3008 4.62617C21.2587 4.66822 21.2166 4.71028 21.1745 4.79439C19.5328 6.98131 17.47 8.78972 15.1126 10.1355C12.671 11.5234 10.0611 12.4065 7.32478 12.743C7.24059 12.785 7.1564 12.785 7.1143 12.785C4.46222 13.1215 2.48369 15.3505 2.48369 18C2.48369 20.6916 4.54642 22.9626 7.24059 23.215C7.32478 23.215 7.40898 23.257 7.53527 23.257C10.2294 23.5935 12.7552 24.4766 15.1126 25.8224C17.5121 27.2523 19.5749 29.1028 21.2166 31.3318Z" fill="#D93497"/>
<path d="M6.73547 25.2758C5.93564 25.2758 5.09371 25.1075 4.12549 24.8131L4.92532 22.5421C8.88239 23.93 10.5662 20.986 13.3867 14.0468C14.818 10.5141 16.4597 6.60286 18.9434 3.65894L20.7957 5.21501C18.5646 7.86454 17.0912 11.4393 15.6599 14.8879C13.5551 20.0187 11.4082 25.2758 6.73547 25.2758Z" fill="#D93497"/>
</svg>
